<?xml version="1.0" encoding="UTF-8"?>
<svg xmlns="http://www.w3.org/2000/svg" xmlns:xlink="http://www.w3.org/1999/xlink" width="437.1pt" height="365.1pt" viewBox="0 0 437.1 365.1" version="1.1">
<defs>
<clipPath id="clip1">
  <path d="M 2.507812 149 L 434.507812 149 L 434.507812 315 L 2.507812 315 Z M 2.507812 149 "/>
</clipPath>
<clipPath id="clip2">
  <path d="M 2.507812 92 L 434.507812 92 L 434.507812 225 L 2.507812 225 Z M 2.507812 92 "/>
</clipPath>
<clipPath id="clip3">
  <path d="M 2.507812 211 L 434.507812 211 L 434.507812 342 L 2.507812 342 Z M 2.507812 211 "/>
</clipPath>
</defs>
<g id="surface1">
<path style="fill:none;stroke-width:7.2;stroke-linecap:square;stroke-linejoin:miter;stroke:rgb(58.396912%,34.49707%,69.726562%);stroke-opacity:1;stroke-miterlimit:3.32551;" d="M 25.078125 3625.101562 L 25.078125 25.101562 " transform="matrix(0.1,0,0,-0.1,0,365.1)"/>
<path style="fill:none;stroke-width:7.2;stroke-linecap:square;stroke-linejoin:miter;stroke:rgb(58.396912%,34.49707%,69.726562%);stroke-opacity:1;stroke-miterlimit:3.32551;" d="M 25.078125 25.101562 L 4345.078125 25.101562 " transform="matrix(0.1,0,0,-0.1,0,365.1)"/>
<g clip-path="url(#clip1)" clip-rule="nonzero">
<path style="fill:none;stroke-width:19.8;stroke-linecap:butt;stroke-linejoin:miter;stroke:rgb(21.99707%,59.568787%,14.892578%);stroke-opacity:1;stroke-miterlimit:3.32551;" d="M 20.898438 1494.476562 L 25.078125 1496.273438 L 118.085938 1537.09375 L 172.109375 1585.101562 L 226.09375 1561.078125 L 280.703125 1633.109375 L 334.6875 1657.09375 L 388.671875 1633.109375 L 442.695312 1585.101562 L 497.304688 1585.101562 L 551.289062 1561.078125 L 605.273438 1585.101562 L 659.882812 1585.101562 L 767.890625 1537.09375 L 930.507812 1537.09375 L 985.078125 1489.085938 L 1039.101562 1489.085938 L 1093.085938 1465.101562 L 1147.695312 1513.109375 L 1255.703125 1561.078125 L 1309.6875 1657.09375 L 1364.296875 1705.101562 L 1526.875 1705.101562 L 1634.882812 1753.109375 L 1689.492188 1801.078125 L 1743.476562 1801.078125 L 1797.5 1825.101562 L 1852.109375 1825.101562 L 1906.09375 1873.109375 L 1960.078125 1897.09375 L 2014.101562 1945.101562 L 2068.671875 1945.101562 L 2122.695312 1993.109375 L 2231.289062 1993.109375 L 2285.273438 2017.09375 L 2339.296875 2017.09375 L 2447.890625 2065.101562 L 2501.875 2017.09375 L 2556.484375 1825.101562 L 2610.507812 1729.085938 L 2773.085938 1657.09375 L 2827.109375 1609.085938 L 2881.09375 1513.109375 L 2935.703125 1393.109375 L 2989.6875 1345.101562 L 3043.671875 1321.078125 L 3098.28125 1273.109375 L 3152.304688 1273.109375 L 3206.289062 1249.085938 L 3260.898438 1249.085938 L 3314.882812 1201.078125 L 3422.890625 961.078125 L 3477.5 865.101562 L 3531.484375 793.109375 L 3585.507812 745.101562 L 3748.085938 673.109375 L 3802.695312 625.101562 L 4073.28125 625.101562 L 4127.890625 601.078125 L 4181.875 601.078125 L 4235.898438 625.101562 L 4345.078125 625.101562 " transform="matrix(0.1,0,0,-0.1,0,365.1)"/>
</g>
<g clip-path="url(#clip2)" clip-rule="nonzero">
<path style="fill:none;stroke-width:19.8;stroke-linecap:butt;stroke-linejoin:miter;stroke:rgb(25.097656%,38.792419%,84.764099%);stroke-opacity:1;stroke-miterlimit:3.32551;" d="M 4345.078125 1669.085938 L 4336.679688 1667.875 L 4327.695312 1666.078125 L 4319.296875 1664.90625 L 4310.273438 1663.109375 L 4293.476562 1660.6875 L 4284.492188 1658.890625 L 4276.09375 1657.679688 L 4267.109375 1655.882812 L 4258.671875 1654.671875 L 4250.273438 1653.5 L 4241.289062 1651.703125 L 4232.890625 1650.492188 L 4223.90625 1648.695312 L 4207.109375 1646.273438 L 4198.085938 1644.476562 L 4189.6875 1643.304688 L 4180.703125 1641.507812 L 4163.90625 1639.085938 L 4154.882812 1637.289062 L 4146.484375 1636.078125 L 4137.5 1634.28125 L 4129.101562 1633.109375 L 4120.703125 1631.898438 L 4111.679688 1630.101562 L 4103.28125 1628.890625 L 4094.296875 1627.09375 L 4077.5 1624.671875 L 4068.476562 1622.875 L 4060.078125 1621.703125 L 4051.09375 1619.90625 L 4034.296875 1617.484375 L 4025.273438 1615.6875 L 4016.875 1614.476562 L 4007.890625 1612.679688 L 3999.492188 1611.507812 L 3991.09375 1610.296875 L 3982.109375 1608.5 L 3973.671875 1607.289062 L 3964.6875 1605.492188 L 3956.289062 1604.28125 L 3947.890625 1602.484375 L 3938.90625 1601.273438 L 3930.507812 1600.101562 L 3921.484375 1598.304688 L 3913.085938 1597.09375 L 3904.6875 1595.296875 L 3895.703125 1594.085938 L 3887.304688 1592.875 L 3878.28125 1591.078125 L 3869.882812 1589.90625 L 3861.484375 1588.109375 L 3852.5 1586.898438 L 3844.101562 1585.6875 L 3835.078125 1583.890625 L 3826.679688 1582.679688 L 3818.28125 1580.882812 L 3809.296875 1579.671875 L 3800.898438 1578.5 L 3791.875 1576.703125 L 3783.476562 1575.492188 L 3775.078125 1573.695312 L 3766.09375 1572.484375 L 3757.695312 1571.273438 L 3748.671875 1569.476562 L 3740.273438 1568.304688 L 3731.875 1566.507812 L 3722.890625 1565.296875 L 3714.492188 1564.085938 L 3705.507812 1562.289062 L 3697.109375 1561.078125 L 3688.671875 1559.28125 L 3679.6875 1558.109375 L 3671.289062 1556.898438 L 3662.304688 1555.101562 L 3653.90625 1553.890625 L 3645.507812 1552.09375 L 3636.484375 1550.882812 L 3628.085938 1549.671875 L 3619.101562 1547.875 L 3610.703125 1546.703125 L 3602.304688 1544.90625 L 3593.28125 1543.695312 L 3584.882812 1542.484375 L 3575.898438 1540.6875 L 3567.5 1539.476562 L 3559.101562 1537.679688 L 3550.078125 1536.507812 L 3541.679688 1535.296875 L 3532.695312 1533.5 L 3524.296875 1532.289062 L 3515.898438 1530.492188 L 3506.875 1529.28125 L 3498.476562 1528.109375 L 3489.492188 1526.273438 L 3481.09375 1525.101562 L 3472.695312 1523.304688 L 3463.671875 1522.09375 L 3455.273438 1520.882812 L 3446.289062 1519.085938 L 3437.890625 1517.875 L 3429.492188 1516.078125 L 3420.507812 1514.90625 L 3412.109375 1513.695312 L 3403.085938 1511.898438 L 3394.6875 1510.6875 L 3386.289062 1508.890625 L 3377.304688 1507.679688 L 3368.90625 1506.507812 L 3359.882812 1504.671875 L 3351.484375 1503.5 L 3343.085938 1501.703125 L 3334.101562 1513.109375 L 3178.671875 1935.492188 L 3170.273438 1946.898438 L 2764.101562 2098.695312 L 2755.078125 2105.882812 L 2634.492188 2362.679688 L 2617.109375 2399.28125 L 2608.671875 2405.296875 L 2461.679688 2486.273438 L 2444.296875 2495.296875 L 2418.476562 2509.085938 L 2409.492188 2506.078125 L 2401.09375 2503.695312 L 2392.695312 2501.273438 L 2383.671875 2498.304688 L 2375.273438 2495.882812 L 2366.289062 2493.5 L 2357.890625 2490.492188 L 2349.492188 2488.109375 L 2340.507812 2485.6875 L 2332.109375 2482.679688 L 2323.085938 2480.296875 L 2314.6875 2477.289062 L 2306.289062 2474.90625 L 2297.304688 2471.898438 L 2279.882812 2462.289062 L 2263.085938 2452.679688 L 2245.703125 2443.695312 L 2228.28125 2434.085938 L 2210.898438 2425.101562 L 2193.476562 2415.492188 L 2176.679688 2405.882812 L 2159.296875 2396.898438 L 2141.875 2387.289062 L 2124.492188 2378.304688 L 2107.109375 2368.695312 L 2090.273438 2359.085938 L 2072.890625 2350.101562 L 2055.507812 2340.492188 L 2038.085938 2331.507812 L 2020.703125 2321.898438 L 2003.90625 2312.289062 L 1986.484375 2303.304688 L 1969.101562 2293.695312 L 1951.679688 2284.671875 L 1934.296875 2275.101562 L 1917.5 2265.492188 L 1900.078125 2256.507812 L 1882.695312 2246.898438 L 1865.273438 2237.875 L 1847.890625 2228.304688 L 1831.09375 2218.695312 L 1813.671875 2209.671875 L 1796.289062 2200.101562 L 1778.90625 2190.492188 L 1761.484375 2181.507812 L 1744.6875 2171.898438 L 1727.304688 2162.875 L 1709.882812 2153.304688 L 1692.5 2143.695312 L 1675.078125 2134.671875 L 1658.28125 2125.101562 L 1640.898438 2116.078125 L 1623.476562 2106.507812 L 1606.09375 2096.898438 L 1588.671875 2087.875 L 1571.875 2078.304688 L 1554.492188 2069.28125 L 1537.109375 2059.671875 L 1519.6875 2050.101562 L 1502.304688 2041.078125 L 1485.507812 2031.507812 L 1468.085938 2022.484375 L 1450.703125 2012.875 L 1433.28125 2003.304688 L 1415.898438 1994.28125 L 1399.101562 1984.671875 L 1381.679688 1975.6875 L 1364.296875 1966.078125 L 1346.875 1956.507812 L 1329.492188 1947.484375 L 1321.09375 1946.898438 L 863.28125 2129.28125 L 802.695312 2153.304688 L 759.492188 2170.101562 L 751.09375 2175.492188 L 724.6875 2209.671875 L 604.101562 2372.289062 L 526.09375 2476.703125 L 517.695312 2487.484375 L 25.078125 2629.085938 " transform="matrix(0.1,0,0,-0.1,0,365.1)"/>
</g>
<g clip-path="url(#clip3)" clip-rule="nonzero">
<path style="fill:none;stroke-width:19.8;stroke-linecap:butt;stroke-linejoin:miter;stroke:rgb(79.6875%,23.509216%,19.993591%);stroke-opacity:1;stroke-miterlimit:3.32551;" d="M 4345.078125 383.304688 L 4336.679688 380.882812 L 4327.695312 379.085938 L 4319.296875 376.703125 L 4310.273438 374.28125 L 4301.875 371.898438 L 4293.476562 370.101562 L 4284.492188 367.679688 L 4276.09375 365.296875 L 4267.109375 362.875 L 4258.671875 361.078125 L 4250.273438 358.695312 L 4241.289062 356.273438 L 4232.890625 353.890625 L 4223.90625 351.507812 L 4215.507812 349.671875 L 4207.109375 347.289062 L 4198.085938 344.90625 L 4189.6875 342.484375 L 4180.703125 340.6875 L 4172.304688 338.304688 L 4163.90625 335.882812 L 4154.882812 333.5 L 4146.484375 331.703125 L 4137.5 329.28125 L 4129.101562 326.898438 L 4120.703125 325.101562 L 3861.484375 325.101562 L 3844.101562 325.6875 L 3628.085938 384.476562 L 3619.101562 389.28125 L 3463.671875 511.078125 L 3412.109375 551.898438 L 3403.085938 558.5 L 3394.6875 566.273438 L 3265.078125 791.898438 L 3187.109375 926.898438 L 3178.671875 931.078125 L 3143.90625 910.6875 L 3127.109375 899.90625 L 3109.6875 889.671875 L 3092.304688 879.476562 L 3074.882812 868.695312 L 3057.5 858.5 L 3040.703125 848.304688 L 3023.28125 837.484375 L 3014.296875 837.484375 L 2911.09375 892.09375 L 2902.109375 898.109375 L 2738.28125 1080.492188 L 2711.875 1108.695312 L 2591.289062 1243.109375 L 2582.304688 1254.476562 L 2548.085938 1312.09375 L 2530.703125 1340.296875 L 2479.101562 1426.703125 L 2470.078125 1438.695312 L 2383.671875 1438.695312 L 2375.273438 1437.484375 L 2366.289062 1433.304688 L 2349.492188 1424.90625 L 2340.507812 1420.6875 L 2323.085938 1411.703125 L 2306.289062 1403.304688 L 2297.304688 1399.085938 L 2279.882812 1390.6875 L 2263.085938 1381.703125 L 2254.101562 1377.484375 L 2236.679688 1369.085938 L 2219.882812 1360.6875 L 2202.5 1351.703125 L 2193.476562 1347.484375 L 2176.679688 1339.085938 L 2167.695312 1334.90625 L 2150.273438 1325.882812 L 2133.476562 1317.484375 L 2124.492188 1313.304688 L 2107.109375 1304.90625 L 2090.273438 1295.882812 L 2081.289062 1291.703125 L 2063.90625 1283.304688 L 2047.109375 1274.90625 L 2029.6875 1265.882812 L 2020.703125 1261.703125 L 2012.304688 1257.484375 L 1960.703125 1211.898438 L 1925.898438 1181.898438 L 1874.296875 1136.273438 L 1839.492188 1106.273438 L 1787.890625 1060.6875 L 1753.085938 1030.6875 L 1701.484375 985.101562 L 1666.679688 955.101562 L 1623.476562 917.289062 L 1597.695312 895.101562 L 1588.671875 890.882812 L 1580.273438 886.703125 L 1571.875 883.109375 L 1562.890625 878.890625 L 1545.507812 870.492188 L 1528.671875 862.09375 L 1519.6875 857.875 L 1502.304688 849.476562 L 1485.507812 841.078125 L 1476.484375 836.898438 L 1459.101562 828.5 L 1450.703125 824.28125 L 1442.304688 820.6875 L 1433.28125 816.507812 L 1415.898438 808.109375 L 1399.101562 799.671875 L 1390.078125 795.492188 L 1372.695312 787.09375 L 1355.898438 778.695312 L 1346.875 774.476562 L 1329.492188 766.078125 L 1321.09375 764.90625 L 889.101562 824.28125 L 362.304688 824.28125 L 353.28125 823.695312 L 344.882812 823.109375 L 335.898438 822.484375 L 327.5 821.273438 L 319.101562 820.6875 L 310.078125 820.101562 L 301.679688 818.890625 L 292.695312 818.304688 L 284.296875 817.679688 L 275.898438 816.507812 L 266.875 815.882812 L 258.476562 815.296875 L 249.492188 814.085938 L 241.09375 813.5 L 232.695312 812.289062 L 223.671875 811.703125 L 215.273438 811.078125 L 206.289062 809.90625 L 197.890625 809.28125 L 189.492188 808.695312 L 180.507812 807.484375 L 172.109375 806.898438 L 163.085938 806.273438 L 154.6875 805.101562 L 146.289062 804.476562 L 137.304688 803.890625 L 128.90625 802.679688 L 119.882812 802.09375 L 111.484375 801.507812 L 103.085938 800.296875 L 94.101562 799.671875 L 85.703125 798.5 L 76.679688 797.875 L 68.28125 797.289062 L 59.882812 796.078125 L 50.898438 795.492188 L 42.5 794.90625 L 33.476562 793.695312 L 25.078125 793.109375 " transform="matrix(0.1,0,0,-0.1,0,365.1)"/>
</g>
</g>
</svg>
